<svg id="Layer_1" data-name="Layer 1" xmlns="http://www.w3.org/2000/svg" viewBox="0 0 500 138.77"><defs><style>.cls-1{fill:#231f20;}.cls-2{fill:#0075b2;}</style></defs><title>edax_logo_500px</title><path class="cls-1" d="M251.5,65.45v1.71c0,1,0,2.41-.1,4.19a29,29,0,0,1-.47,4.56,53.83,53.83,0,0,1-2.1,10.26,82.76,82.76,0,0,1-3.42,9.32,68.85,68.85,0,0,1-4.94,8.55,65.86,65.86,0,0,1-23,21.1l-.19.19-.95.76-.57.38-.38.19-.57.38-1.14.95a11.45,11.45,0,0,1-1.33.76,14,14,0,0,0-1.33.76,1.23,1.23,0,0,0-.67.19,5,5,0,0,1-.66.38l-1.14.57a.31.31,0,0,0-.29.19c-.06.13-.22.19-.47.19a9,9,0,0,1-1.33.57l-1.15.38c-.38.13-.79.26-1.23.38l-1.24.38a14.86,14.86,0,0,1-1.9.57l-1.71.57a31.54,31.54,0,0,0-3.42.39,29,29,0,0,1-3,.76l-4,.57-2.47.38a1.12,1.12,0,0,1-.76-.19c-.13-.13-.2-.13-.2,0a.17.17,0,0,1-.19.19l-5.32.19h-.57c-.13-.13-.22-.13-.28,0s-.16.12-.29,0a.23.23,0,0,0-.38,0,.58.58,0,0,1-.38.19c-.25,0-.38-.19-.38-.57-.13.38-.28.57-.47.57h-.48a1.53,1.53,0,0,0-.95-.1,5.38,5.38,0,0,1-1,.1,1.31,1.31,0,0,0-.86-.1,1.28,1.28,0,0,1-.85-.09h-.19a.81.81,0,0,1-.57.19.74.74,0,0,0-.57.19c-.13,0-.16,0-.1-.1s0-.16-.09-.28c-.26.38-.45.44-.57.19l-.38-.38c0,.38-.13.57-.38.57s-.38-.19-.38-.57q-.39.38-.57,0a.52.52,0,0,0-.19.38c0,.12-.07.12-.19,0a.33.33,0,0,1-.38-.38l-.19-.19-.19.19c0,.25-.07.38-.19.38-.26-.51-.32-.83-.19-1s.25-.38,0-.38-.19-.07-.19.19a.31.31,0,0,0-.1.38c.06.12,0,.19-.09.19s-.19.12-.19,0a.17.17,0,0,0-.19-.19l-.19-.38c.38-.13.5-.26.38-.39a4,4,0,0,1,0-2.47c.12-.12.15-.22.09-.28s0-.16.1-.29.19.1.19.29a.61.61,0,0,0,.19.47v.19l.19-.19a1.09,1.09,0,0,1,.19-.76c.12,0,.12-.06,0-.19l-.38-.19v-.57a.17.17,0,0,1,.19.19.17.17,0,0,0,.19.19.81.81,0,0,0-.19-.57.74.74,0,0,1-.19-.57c0,.26-.13.32-.38.19v-.38c-.13,0-.19,0-.19-.09s.06-.1.19-.1c.38-.25.44-.63.19-1.14,0-.12-.19-.38-.57-.76a.4.4,0,0,0-.1-.28c-.06-.07,0-.16.1-.29l-.19-1.71a6,6,0,0,0,.19-1.71v-.76a.84.84,0,0,1-.19-1c.12-.13.12-.38,0-.76l-.19-.38v-.19l-.38.19a.33.33,0,0,1-.38-.38q.38-.37,0-.57c0-.25.25-.51.76-.76l.19-.19-.19-.19c-.13-.13-.13-.38,0-.76a1.57,1.57,0,0,1-1.05,0c-.32-.13-.47-.25-.47-.38v-.38c-.13-.38-.13-.6,0-.67a3.86,3.86,0,0,1,1.14-.09h.38a21.83,21.83,0,0,0,3.23-.19.84.84,0,0,0,1-1,.75.75,0,0,0-.1-.38c-.06-.13,0-.19.1-.19a7.86,7.86,0,0,0-1.71-.95,6,6,0,0,1,2.09-1,41.47,41.47,0,0,1-4.75-.19c-1.14,0-1.71-.06-1.71-.19-.26-.38.12-.69,1.14-1h.38a1.87,1.87,0,0,1-.76-.38,2.66,2.66,0,0,0-.57-.38.56.56,0,0,0-.38.19v.19a.77.77,0,0,1-.57.19l-.19-.38a1.53,1.53,0,0,1,.76-1.52c-.13-.12,0-.25.28-.38A3.55,3.55,0,0,1,166,109l10.07-.19a43.09,43.09,0,0,1,6.65-.19h1.52l.19-.19a18.13,18.13,0,0,0-3.23-.09q-1.91.09-2.85.09l-10.64.57q-2.85,0-2.85-1.14v-.19c0-.12-.13-.28-.38-.47s-.26-.35,0-.48a4.51,4.51,0,0,1,2.09-.76c.88-.12,1.45-.19,1.71-.19a7.24,7.24,0,0,0,3.42-.57l.76-.19c1.52,0,3.67-.12,6.46-.38q-.19-.37,0-.57l.76.57h.57a.35.35,0,0,1,.38-.38l.57.19h.76v-.57c0-.12-.19-.25-.57-.38a.25.25,0,0,1,0-.38c.13-.12.32-.06.57.19a.69.69,0,0,1,.57,1v.19l.19-.19-.19.19c.38-.38.64-.44.76-.19H184a.92.92,0,0,0-.09-.38c-.07-.12,0-.31.09-.57-.12-.25-.06-.38.19-.38.51,0,.77.13.77.38a.85.85,0,0,0-.19,1h.76V104a3.09,3.09,0,0,0-.1-.57.77.77,0,0,1,.29-.76,1.12,1.12,0,0,1,.76-.19h.38a3.23,3.23,0,0,0,1.52,1,3.42,3.42,0,0,1-.48-.66c-.19-.32,0-.54.48-.67.25.26.5.19.76-.19,0-.13.09-.16.28-.1s.29.16.29.29a1.75,1.75,0,0,0,.85.38c.19,0,.41-.19.67-.57.5-.5.88-.57,1.14-.19.38.13.57.06.57-.19s.25-.38.76-.38q.38-.19.57,0l.19.38,1.14-1.14c1-.38,1.65-.51,1.9-.38l.38-.19a5.8,5.8,0,0,1,.57-.48c.25-.19.57-.15.95.1v-.19a5.75,5.75,0,0,0,.86-.57c.31-.25.66-.51,1-.76a18.56,18.56,0,0,1,2.28-.95.74.74,0,0,0,.57-.19l.38-.38.38-.38a1.88,1.88,0,0,1,1.05-.38,1.9,1.9,0,0,1,.86.19h.57l.19-.19c0-.13-.32-.26-1-.38h-.19a1.11,1.11,0,0,1,1-.57c.25.12.38,0,.38-.38s.06-.38.19-.38a7.08,7.08,0,0,0,1.52-1,3.47,3.47,0,0,0,.95-1l.76-.56c.63,0,.82-.19.57-.58,0-.25.06-.38.19-.38s.54-.22.85-.66.6-.67.86-.67l.38-.19v-.19l.19-.38-.19-.19c0-.5.19-.76.57-.76l.38-.19.38-.57v-.19c0-.38.12-.57.38-.57l.76-1-.19-.19c.12-.25.5-1.14,1.14-2.66.13-.25.25-.54.38-.85a3.34,3.34,0,0,1,.76-1,11.78,11.78,0,0,0,.76-2.66,21.16,21.16,0,0,0,.95-5.89.74.74,0,0,1,.19-.57c.38-.38.38-.7,0-1a.42.42,0,0,0-.09-.29c-.07-.06,0-.1.09-.1l-.19-1.14V67.54l-.19-1v-1.9l.19-.38c-.13-.88-.19-1.36-.19-1.42s.32,0,1,.09a3.37,3.37,0,0,1-1.14-1.52l-.57-2.09a4.46,4.46,0,0,1-.19-2.09,4.1,4.1,0,0,1,.76-1.52c-.25-.38-.51-.44-.76-.19s-.63.13-1.14-.38l-.19-.76a.77.77,0,0,1-.38-.76c.38-.38.32-.64-.19-.76l-.38-.19-.57-1.33a1.79,1.79,0,0,1-1-1.14c0-.13-.13-.32-.38-.57-.51-.64-.73-1-.67-1.15s.35-.25.86-.38L215,48l-1.71-1a1,1,0,0,1-.48-.76,1.5,1.5,0,0,0-.28-.76c-.13,0-.22.1-.29.29s-.28.16-.66-.1c-.51-.5-.51-1.2,0-2.09,0-.12-.19-.19-.57-.19a2.55,2.55,0,0,1-1.9-.76l-1.71-1.33-.76-.38a.91.91,0,0,0-1-.76c-.25,0-.5-.19-.76-.57-.12-.12,0-.19.38-.19h.38c.13,0,.19-.12.19-.38s-.19-.38-.57-.38a.78.78,0,0,1-.19-.57c.38-.38.13-.69-.76-.95l-.19.95v.38a.17.17,0,0,1-.19.19,1.49,1.49,0,0,1-1.33-.57,3.39,3.39,0,0,0-1.71-.57c-.51-.12-.7-.38-.57-.76v-.57A1.08,1.08,0,0,0,200,35c-.13-.13-.38,0-.76.38l-.76.19a4,4,0,0,0-.66.09.55.55,0,0,1-.67-.28.23.23,0,0,1,0-.38.77.77,0,0,1,.57-.19c.13-.13.06-.35-.19-.67s-.44-.47-.57-.47c-.38-.13-.57-.06-.57.19.63.25.57.76-.19,1.52a1.57,1.57,0,0,1-.47-.86,3.37,3.37,0,0,1-.1-.66l-.38-.38c-.13-.13-.32-.06-.57.19.12.51.12.82,0,.95s-.19.32-.57.19-.45-.32-.19-.57.12-.35,0-.67-.07-.53.19-.66c-1-.38-1.4-.25-1.14.38.25.25.31.44.19.57a.55.55,0,0,1-.38.19l-.38-.38c0-.51-.13-.82-.38-1-.26.13-.32.38-.19.76s-.07.38-.19.38l-.57.19a1.59,1.59,0,0,0,.09.47.87.87,0,0,1-.09.67.38.38,0,0,0,.09.28c.07.07,0,.16-.09.29s-.32-.13-.57-.38a.81.81,0,0,0-.19-.57c0,.51-.13.7-.38.57v-.19a1.05,1.05,0,0,1-1.24.28,2.83,2.83,0,0,0-1-.28,11.61,11.61,0,0,1-1.9-.38h-2.29l-2.66-.38a17.41,17.41,0,0,0-2.85-.19,4.86,4.86,0,0,0-1.52-.19q-4.56.19-15,.95h-1.9a7.34,7.34,0,0,1,.1,2,12,12,0,0,0-.1,1.43q0,1.34-.09,3.33a43.24,43.24,0,0,0,.09,4.84,41.78,41.78,0,0,0-.38,4.76V56a24.41,24.41,0,0,1,.1,3.71,24.26,24.26,0,0,0,.09,3.7c0,.64,0,1.52-.09,2.66a15.58,15.58,0,0,0,.09,3,.69.69,0,0,1,.1.57.8.8,0,0,0-.1.38c-.12,0-.19.13-.19.39a1.25,1.25,0,0,1,.19,1.23,2.11,2.11,0,0,0,0,1.24,2.33,2.33,0,0,1,0,1.9.71.71,0,0,1,.1.66.73.73,0,0,0,.09.67,33.71,33.71,0,0,1,.1,4.27c-.07,1.21-.1,2.26-.1,3.14a9.28,9.28,0,0,1,.1,2.38c-.07,1-.1,1.61-.1,2v4.57a8.89,8.89,0,0,1-.19,2.09,4,4,0,0,1,.19,2.09c.13,0,.19.13.19.38v1.33a17.18,17.18,0,0,0,.38,3.23l-.19,2.66c0,1.9.07,3.52.19,4.85s.26,2.44.38,3.32a3.44,3.44,0,0,0,.19,1.34c0,.63-.12,1-.38,1.14a.48.48,0,0,0,0,.76c.26-.13.38,0,.38.38a4.94,4.94,0,0,1,.19,2.28c-.25.38-.25.63,0,.76s.19.13.19.38v1a21.3,21.3,0,0,0,.19,2.85,19.76,19.76,0,0,1,.19,2.85c.26,3.3.38,5.64.38,7,0,.76-.12,1-.38.76s-.5.13-.76.77a2.88,2.88,0,0,1-1.71,1.71,1.12,1.12,0,0,0-.95.57c-.13.38-.28.53-.47.47a.87.87,0,0,1-.48-.47c-.13-.76-.38-.89-.76-.38l-.76.19c-.13,0-.57-.07-1.33-.19a2.6,2.6,0,0,1-1.71-1c0-.13-.13-.07-.38.19-.51.5-1,.31-1.52-.57a1.76,1.76,0,0,0-1.05-.76,2.27,2.27,0,0,1-.85-.38h-.19a1.5,1.5,0,0,1-1.24.85,3.94,3.94,0,0,0-1.23.29c-.26.25-.51.06-.76-.57s-.7-.57-1.33-.19a.84.84,0,0,1-1.14.19c-.64-.38-1.21-.19-1.72.57a.55.55,0,0,1-.19.38c-.38,0-.57.31-.57,1-.12.88-.44,1.26-.95,1.14a.84.84,0,0,1-1-.95c-.12-.51-.57-.76-1.33-.76-.38.12-.76-.13-1.14-.76-.13-1.14-.7-1.46-1.71-.95-.51.25-.76,0-.76-.77-.13-1.52-.25-3.32-.38-5.41s-.19-3.71-.19-4.85a93.2,93.2,0,0,0-.38-11.6c0-.12,0-.41-.09-.85a1.17,1.17,0,0,1,.28-1.05v-.19a9.58,9.58,0,0,1-.38-2.94v-2.38a42.85,42.85,0,0,1-.19-6.65l-.19-4.75a34.43,34.43,0,0,1-.19-4.38c0-3.54-.07-6.2-.19-8a44.8,44.8,0,0,0,.09-4.94q-.09-2.1-.09-3.42V67c0-2.28-.07-4-.19-5.13l-.19-7v-1a2.06,2.06,0,0,1,.19-1,.25.25,0,0,0,0-.38.55.55,0,0,1-.19-.38l.38-14.07a2.31,2.31,0,0,1,0-1.33,3.43,3.43,0,0,0-.19-.76,1.19,1.19,0,0,1,0-1,9,9,0,0,0,.19-2.28v-.67c0-.31.19-.41.57-.28a2.27,2.27,0,0,1-.57-2.47,9.22,9.22,0,0,0,0-2.57,8.51,8.51,0,0,1,0-2.57,11.13,11.13,0,0,0,.09-2.56,9.28,9.28,0,0,1,.1-2.38v-.38c-.13-.12-.19-.44-.19-.95a8.22,8.22,0,0,1,.09-1,1.71,1.71,0,0,0-.28-1.24c-.13-.25-.1-.35.09-.29s.29,0,.29-.09a1,1,0,0,1-.38-.67,1.75,1.75,0,0,1,.38-.85l.38-.76a.53.53,0,0,0-.38-.19c-.13,0-.19-.13-.19-.38v-.76a.5.5,0,0,1,.57-.57c-.38-.38-.51-.73-.38-1.05a2.06,2.06,0,0,0,.19-.66.74.74,0,0,0-.29-.48.52.52,0,0,1-.09-.66.87.87,0,0,1,.57-1l.19-.57a.33.33,0,0,0-.38-.38.17.17,0,0,0-.19-.19.17.17,0,0,1-.19-.19c.63-.64,1.14-.83,1.52-.58s.38.19.38-.19a.62.62,0,0,0-.38-.57,1.59,1.59,0,0,1-.47-.09.44.44,0,0,1-.29-.48c-.13-.25-.09-.41.1-.47a1.13,1.13,0,0,0,.47-.29l.38-.57a3.64,3.64,0,0,0,.1.95c.06.26.28.32.66.19a2.73,2.73,0,0,1,1.14-.19,3.43,3.43,0,0,1,2.47.76,1.54,1.54,0,0,0,.38.29,1.38,1.38,0,0,1,.38.28.82.82,0,0,1-.47.48,1.41,1.41,0,0,0-.48.28.34.34,0,0,0-.38.39c0,.25.13.25.38,0a.9.9,0,0,1,.48.19.85.85,0,0,1,.28.76c.13.25.26.25.38,0a1.56,1.56,0,0,0,.57-.95c.26-.39.51-.45.76-.19,0,.12-.09.25-.28.38s-.22.31-.1.57a1.5,1.5,0,0,0,.67-.38.75.75,0,0,1,.85-.19c-.38-.26-.57-.48-.57-.67a1.88,1.88,0,0,1,.38-.86c0,.13.13.07.38-.19,0-.12,0-.15.1-.09a.39.39,0,0,1,.09.28c.39.89.89,1,1.53.38v.19c.25,0,.69-.31,1.33-1a.77.77,0,0,0,.47-.28c.19-.19.35-.22.48-.1l.57.19A2.52,2.52,0,0,0,147,4a1.07,1.07,0,0,1,1-.1,5.76,5.76,0,0,0,2.47.38,2.09,2.09,0,0,0,.95-.19c.63-.25,1.07-.12,1.33.38s.82.32,1.33-.19q.38-.57.57-.57l.76-.19c.38,0,.51.64.38,1.9.25,0,.38-.19.38-.57a2.41,2.41,0,0,1,.29-.76c.19-.38.47-.38.85,0h.29c.06,0,.09-.06.09-.19.38-.38.67-.47.86-.28a.77.77,0,0,0,.47.28.57.57,0,0,0,.57.1,1.12,1.12,0,0,1,.76.09.85.85,0,0,0,.38-.09c.13-.06.19,0,.19.28a3,3,0,0,1-.38,1.33h.76l3.05.19h.19l3.8-.19h2.85a.76.76,0,0,1,.76.39l.19-.2.19-.19a15.89,15.89,0,0,0,3,.39h1.33l.76.19a.38.38,0,0,0,.29-.1c.06-.06.15,0,.28.1a.38.38,0,0,0,.29-.1c.06-.06.15,0,.28.1h.38A3.87,3.87,0,0,1,180.4,6a21.73,21.73,0,0,1,3.23.38H184a5.73,5.73,0,0,1,1.72-.19L186.87,6h.19l4.18.19,2.28.19.38.19.57.19c.25-.26.5-.19.76.19h.19V7.1a.34.34,0,0,0,.38-.38c-.13,0-.13,0,0-.1a.32.32,0,0,1,.38.1c.51.12.7.25.57.38-.38,0-.57.06-.57.19a1.09,1.09,0,0,1,.76.19c0-.51.51-.64,1.52-.38s1.58.44,1.33,1l.19-.19a.38.38,0,0,0,.29-.1c.06-.06.15-.16.28-.28a.6.6,0,0,1,.38.57h1.14c0-.13.13-.19.38-.19a4.51,4.51,0,0,1,1.71.38l1.71,1.14a1.09,1.09,0,0,1,.77.38c.38-.26.44-.51.19-.76a2.24,2.24,0,0,1,1,.47c.19.19.22.29.1.29s0,.25.38.38l.57.38c0-.26.25-.32.76-.19q.38-.39,0-.57,1.14.57,1.14,1.14a2.58,2.58,0,0,0,1.14.19c0-.51.44-.51,1.33,0a.77.77,0,0,1,.57.19l-.19.19a1.93,1.93,0,0,1-.67-.1c-.19-.06-.28,0-.28.1l.38.38a2.64,2.64,0,0,0,1.14-.19c.12-.13.57.06,1.33.57l2.66,1.14,2.09,1.52A80.79,80.79,0,0,1,231,22.11l1.9,1.9,2.28,2.09c.25.26.5.54.76.86a11.86,11.86,0,0,0,1,1.05,5.58,5.58,0,0,0,1.33,1.52c.76,1.26,1.08,2,.95,2.09s0,.44.38.95c.13.38.13.63,0,.76a15.66,15.66,0,0,1,2.09,3.23A41.87,41.87,0,0,1,246.93,47a58,58,0,0,1,2.86,11.22,8.25,8.25,0,0,0,.76,2.66,7.38,7.38,0,0,1,.95,2.85,1.14,1.14,0,0,1,.19.76v.57Z"/><path class="cls-1" d="M385.7,125.52h-.95c-.26,0-.38.32-.38,1a2.48,2.48,0,0,1-.76,2.09.89.89,0,0,0-.57.95q0,.57-.39.57a1,1,0,0,1-.75-.38.62.62,0,0,0-.58-.38.34.34,0,0,0-.38.38c0,.26-.19.38-.57.38l-2.85-.19c-.25,0-.38.07-.38.19,0,.64-.51.7-1.52.19a4.33,4.33,0,0,0-2.28-.57h-.19a1.84,1.84,0,0,1-.85,1.33,5.1,5.1,0,0,0-1.05.76c-.13.13-.38,0-.76-.38s-.48-.34-.67-.28a.83.83,0,0,0-.47.47c-.13.26-.45.38-1,.38a1.18,1.18,0,0,0-1.33,1.33c0,.26-.07.38-.19.38-.38,0-.45.39-.19,1.14a2.05,2.05,0,0,1,.09,1c-.06.32-.22.48-.47.48a1.55,1.55,0,0,1-1.14-.76c-.38-.38-.73-.51-1.05-.38a2.47,2.47,0,0,1-.66.19c-.38.12-.76-.07-1.14-.58a1.85,1.85,0,0,0-.95-.75.54.54,0,0,0-.77.38c-.25.37-.57.25-1-.38a31.83,31.83,0,0,1-2.28-5.9,7.91,7.91,0,0,1-.85-2,10.14,10.14,0,0,0-.67-1.81,24.77,24.77,0,0,1-1.33-3.8,48.8,48.8,0,0,0-3.23-7.41,3.45,3.45,0,0,1-.57-1.72v-.19a11,11,0,0,1-2.28-4.94,11.29,11.29,0,0,0-1.14-3l-.19-.19h-.19a1.54,1.54,0,0,1-1.14.38h-1.52a15.79,15.79,0,0,0-2.47.19,14.75,14.75,0,0,1-2.47.19h-7.61c-1.65,0-3.74-.12-6.27-.38a14,14,0,0,0-2.85-.09,13.94,13.94,0,0,1-2.85-.1l-3.43-.19h-8.55a1.51,1.51,0,0,1-1.14-.38c-.13-.12-.22-.12-.29,0a.3.3,0,0,1-.28.19,7.8,7.8,0,0,1-2.09-.38c-.89-.25-1.52-.19-1.9.19l-.38.57a2.06,2.06,0,0,0-.57,1.52c0,.64-.26,1-.76,1h-.57a1.27,1.27,0,0,0-1.14.57c-.13.13,0,.38.38.76s.38.45.38.57a2.67,2.67,0,0,0,.09.57.58.58,0,0,1-.09.57c-.26.26-.51.13-.76-.38-.13-.12-.35-.12-.67,0a2.07,2.07,0,0,0-.66.38c0,.26.06.38.19.38h1c.57,0,.73.13.48.38a1.72,1.72,0,0,1-1.52.57l-.39.19c-.12.13-.06.32.2.57s.44.19.95.19c.12,0,.22.1.28.29a.44.44,0,0,1-.09.47q-.19.39-.57,0c-.77-.76-1.21-.88-1.33-.38a2.84,2.84,0,0,1-.1.57c-.07.26.1.38.47.38h.39a.81.81,0,0,1,.19.57c0,.13,0,.17-.1.1s-.16,0-.29.1a3.47,3.47,0,0,1-.66-.1c-.32-.06-.41,0-.29.29a.78.78,0,0,0,.76.38c.39,0,.51.19.39.57s-.32.57-.57.57a2.84,2.84,0,0,0-.58.09.57.57,0,0,1-.57-.09c-.5-.51-.82-.57-.95-.19a.49.49,0,0,0,.19.66c.26.19.32.29.19.29a5.23,5.23,0,0,0-1.8.38q-1.05.38-.48.57a1.29,1.29,0,0,0,.95,0,3,3,0,0,1,.95-.19,4.56,4.56,0,0,0,1.24-.67c.69-.44,1-.54.86-.28a1.45,1.45,0,0,1-1,.85c-.5.19-.63.35-.38.48a2.21,2.21,0,0,1,.67.57c.06.12-.1.44-.48,1a2.44,2.44,0,0,0-.57,1.14,5.15,5.15,0,0,1-.38,1.14,1.61,1.61,0,0,1-.57.85c-.25.19-.38.16-.38-.09s0-.16-.09-.1l-.29.29q-.18.57,0,.57c.64,0,.76.51.38,1.52q-2.08,5.52-3.8,11a3.6,3.6,0,0,1-.85,1.71,1.43,1.43,0,0,1-1.43,0c-.25,0-.54-.26-.85-.76s-.67-.77-1.05-.77l-.19-.18h-.38a3.28,3.28,0,0,1-1.81-.77,3.23,3.23,0,0,0-1.61-.76,3.12,3.12,0,0,1-1.33-1.23,3.29,3.29,0,0,0-1.33-1.24,2.39,2.39,0,0,1-.86-.38c-.44-.25-.79-.25-1,0a.44.44,0,0,1-.48.1c-.19-.06-.28-.16-.28-.29s-.19-.38-.57-.38a2.15,2.15,0,0,1-1.43-.57,6,6,0,0,0-1-.76.65.65,0,0,1-.19-.47.69.69,0,0,1,.19-.48,8.57,8.57,0,0,0,1.9-3.52c.51-1.58.89-2.75,1.15-3.51l1.71-4.18a1.18,1.18,0,0,1,.95-.76c.5-.13.76-.32.76-.57a.17.17,0,0,1,.19-.19.17.17,0,0,0,.19-.19c0-.38-.1-.57-.29-.57h-.47c-.26,0-.32-.19-.19-.57.25,0,.57-.22.95-.67s.69-.54.95-.29.57.38.57,0V112c0-.38-.26-.72-.76-1s-.7-.54-.57-.67a1.3,1.3,0,0,1,.95-.38c.38,0,.57-.06.57-.19s-.13-.19-.38-.19c-.51,0-.57-.44-.19-1.33.12-.25.35-.66.66-1.23a3.32,3.32,0,0,0,.48-1.62c0-.25.25-.5.76-.76a1.38,1.38,0,0,1,1.14-.19,13.09,13.09,0,0,1,1.14,1.33c.38.51.5.64.38.38-.38-1.64-1-2.53-1.9-2.66l-.19.19c-.13.13-.51.16-1.14.1s-1,0-1.14.28a3.88,3.88,0,0,0-.29,1.14,3.75,3.75,0,0,1-.28,1.14,10.63,10.63,0,0,0-1.52,3.42c0,.26-.29.48-.86.67s-.73.41-.47.66l.38.76a2.54,2.54,0,0,1-.29,1.14c-.19.39-.35.7-.47,1a41.27,41.27,0,0,1-1.71,4.84q-1.15,2.76-1.72,4.47a10.48,10.48,0,0,1-.85,1.71,11.37,11.37,0,0,0-.86,1.71,1.81,1.81,0,0,1-.85,1.33c-.45.26-.79.26-1.05,0a3,3,0,0,0-1.61-.76,10.94,10.94,0,0,1-1.62-.38,2.34,2.34,0,0,0-.66-.38,3,3,0,0,0-1.05-.19c-.38,0-.45-.25-.19-.76l.57-1.52c.51-.88,1.52-3.23,3-7q.76-2.28,2.66-6.47a62.48,62.48,0,0,0,2.85-7h-.19a1,1,0,0,0-.47.19,1.15,1.15,0,0,1-.67.19.3.3,0,0,1-.28-.19.33.33,0,0,0-.29-.19l-.19.19c.13.38,0,.57-.28.57s-.48.13-.48.38a5.29,5.29,0,0,0,.1,1q.09.57-.48.57v.19a.77.77,0,0,1,.19.57,1.27,1.27,0,0,1-.57,1.14c-.25.13-.25-.12,0-.76a4.8,4.8,0,0,1-.57.48c-.25.19-.25.47,0,.85a.86.86,0,0,1,.19,1q-.18.57-.57.57c-.25,0-.38.1-.38.29v.47c.13.51.13.83,0,1s-.32.07-.57-.19c0-.12-.32-.06-.95.19-.38.26-.51.45-.38.57a.55.55,0,0,1,.19.38.17.17,0,0,0,.19.19c.13,0,.16-.06.1-.19a.3.3,0,0,1,.09-.38l.38-.38c.25,0,.38.19.38.57a1.12,1.12,0,0,1-.19.77,1.36,1.36,0,0,1-.66.28c-.32.07-.42.16-.29.29.38.38.38,1,0,1.9q-.37.94-1.14,3.51a10.73,10.73,0,0,1-1.9,3.9,5.6,5.6,0,0,1-1.24,1.24,8.08,8.08,0,0,0-1,.85c-.13.13-.19.13-.19,0a.6.6,0,0,0-.19-.38,1.29,1.29,0,0,1-.19-1.52,32.62,32.62,0,0,1,2.28-5.13l1.14-1.71a6,6,0,0,0,.95-2.09c.13-.51.32-.76.57-.76s.38-.07.38-.19l-.19-.58a4.2,4.2,0,0,1,1.52-2.66c.51-.5.63-.88.38-1.14a.74.74,0,0,1-.19-.57,2.89,2.89,0,0,1,.29-1c.19-.45.34-.79.47-1a7.24,7.24,0,0,1,.29-1.14c.19-.63.47-1,.85-1a.9.9,0,0,0,.48-.19c.19-.12.22-.25.09-.38-.63-.25-.82-.57-.57-.95s.45-.38.57-.38H272l.19-.19c.26-.25.32-.38.19-.38s-.38-.06-.38-.19h-.57c-.12.13-.16.22-.09.28s0,.1-.1.1-.22.1-.28.29a.45.45,0,0,1-.48.28c-.5,0-.79-.09-.85-.28a1.29,1.29,0,0,0-.29-.48l-.38-.38h.76c.38,0,.51-.12.38-.38l-.19-.76a4.18,4.18,0,0,1,1.52-2.66,1.27,1.27,0,0,0,.29-.57c.06-.25.16-.32.28-.19s.38.44.38.57l.19.76v.19l.19-.19v-.57l.19-.19.19-.19.19-.19h-.19A.17.17,0,0,0,273,97v-.19h-.19c0-.13,0-.41-.09-.86s0-.54.09-.28l.38.76a11.1,11.1,0,0,1,.1-1.24c.06-.57,0-.73-.29-.47a1.77,1.77,0,0,1-1,.47c-.45.07-.48-.09-.1-.47a.23.23,0,0,0,0-.38c-.25-.26-.19-.38.19-.38a.5.5,0,0,0,.57-.57,12.93,12.93,0,0,0-.57-1.9c-.38-.39-.5-.7-.38-1a2,2,0,0,0,.1-1.14,3,3,0,0,1,.09-1.33,10.26,10.26,0,0,0,.38-2.47v-.95a3.42,3.42,0,0,1,.19-1.33.86.86,0,0,0,.1-.66,1.42,1.42,0,0,1-.1-.48V80.85l.19-.19H273l-.19-.38h-.19v-.19l.19-.19-.19-.19.19-.57v-1.9A2.73,2.73,0,0,1,273,76.1a.42.42,0,0,0-.09-.29c-.07-.06,0-.09.09-.09a.52.52,0,0,1,.38.19.77.77,0,0,0,.57.19,2.68,2.68,0,0,1,.38.47c.13.19.19.23.19.1a.5.5,0,0,1,.57-.57h.39c0,.25.06.32.19.19l.76-.38a1.15,1.15,0,0,1,.85.28.92.92,0,0,0,.67.29h2.85q.57-1.71,1.71-5.51a26.38,26.38,0,0,1,2.66-6.28,1.37,1.37,0,0,0,.19-1.52,2.58,2.58,0,0,1-.19-1.14,5.18,5.18,0,0,1,.95-2.66,7.85,7.85,0,0,0,1.05-2.19c.31-1,.53-1.61.66-2q.57-1.71,2.09-5.13c1.52-3.81,2.79-7.16,3.8-10.08q3-8.55,4.76-15.21c.25-.88.53-2.09.85-3.61a15.83,15.83,0,0,1,1.24-3.8c.38-.63.95-1.62,1.71-2.95a7.31,7.31,0,0,0,1.14-3.51.33.33,0,0,1,.38-.38,1.53,1.53,0,0,0,1,.09,1.54,1.54,0,0,1,.95.1c.38.12.44.57.19,1.33-.13.25-.26.47-.38.66a1.54,1.54,0,0,0-.19.86,5,5,0,0,1-.1.76c-.06.38,0,.57.29.57a.89.89,0,0,0,.95-.57,4.23,4.23,0,0,1,1.24-1.9c.57-.51.91-.82,1-.95s.44-.38.57-.38.48.25.67.76.47.57.85.19a2.83,2.83,0,0,0,.76-1.33c.51-1,.76-1.4.76-1.14v.95c0,.25.06.38.19.38s.38-.26.38-.76A2,2,0,0,1,314,8.24a5.72,5.72,0,0,0,1.33-1.71c.64-1.15,1.14-1.34,1.52-.57a1.29,1.29,0,0,0,1.14.57,11.3,11.3,0,0,0,2.1-.19,9.35,9.35,0,0,1,1.9-.19,4.36,4.36,0,0,0,1-.19c.44-.13.67.19.67,1,0,.12.16.22.47.28a.73.73,0,0,0,.67-.09.81.81,0,0,0,.19-.57.74.74,0,0,1,.19-.57.53.53,0,0,1,.38-.2,2,2,0,0,0,1.23-.57,1.91,1.91,0,0,1,1.05-.57,5.79,5.79,0,0,0,2.47-.38l.95-.57a1.06,1.06,0,0,1,1.33-.19c.63.26.95,0,.95-.76,0-.38.06-.57.19-.57s.41.26.48.76a2.34,2.34,0,0,0,.38,1.14c.19.26.54.13,1-.38a.31.31,0,0,0,.1-.38.75.75,0,0,1-.1-.38,2.61,2.61,0,0,1,.1-.85c.06-.19.28-.29.66-.29a.33.33,0,0,0,.38-.38c0-.5.45-.63,1.33-.38q.39.19.57,0a.82.82,0,0,1,.58-.19.41.41,0,0,0,.28-.09c.06-.06.16,0,.28.09a4.82,4.82,0,0,1,.2,1.52q0,.2-.39.57c.51,0,.83.32,1,.95v.19A6.81,6.81,0,0,1,342,7c.25,1.21.44,2.06.57,2.57q.94,2.85,1.52,4.94.38,1.51,2.09,6.08l2.09,6.46c.25.89.57,1.94.95,3.14s.82,2.57,1.33,4.09c.38,1.14.76,2.37,1.14,3.7a39.18,39.18,0,0,0,1.52,4.28c.25.76.48,1.49.67,2.19s.41,1.42.66,2.18.51,1.33.76,2.1.57,1.58,1,2.47l2.66,7c.26.64.67,1.49,1.24,2.57a6.38,6.38,0,0,1,.86,2.94l.19.95v.38c.25,0,.44.29.57.86a3.91,3.91,0,0,0,.57,1.42v.38a8.55,8.55,0,0,1-.1,1q-.09.66.48.66c.25,0,.41.17.47.48a4.66,4.66,0,0,1,.1.67,35.33,35.33,0,0,1,1,3.42,5.47,5.47,0,0,0,1.81,3.23,3,3,0,0,1,.95,1.71,4.13,4.13,0,0,0,.57,1c.25.26.28.41.09.47s-.28.17-.28.29,0,.16-.1.09-.09,0-.09.1a6.07,6.07,0,0,0,.76,2.66c.5,1,.88,1.84,1.14,2.47a2.23,2.23,0,0,1,.19,1,3,3,0,0,0,.38,1.33,1.84,1.84,0,0,0,.38.76,1.89,1.89,0,0,1,.38,1l.19.38a5.65,5.65,0,0,0,.66,2.48c.45.88.8,1.58,1.05,2.09q2.66,6.84,4.37,10.26l.57,1.33a.79.79,0,0,0,.29.48c.19.19.16.41-.1.66a.6.6,0,0,0-.19.38.17.17,0,0,0,.19.19h.38c.13,0,.26.13.38.38s.29.61.48,1.05a2.83,2.83,0,0,1,.28,1v.38c0,.13.13.19.38.19l.19.38a6.84,6.84,0,0,0,1.14,3.43c.76,1.26,1.27,2.15,1.52,2.66a61.5,61.5,0,0,1,2.86,7ZM336.84,77.43h.38c.26,0,.32-.06.19-.19a8.86,8.86,0,0,1-1-1.71l-1.52-4.18a52.43,52.43,0,0,1-2.09-5.52c-.38-1-.76-2.09-1.14-3.23s-.82-2.4-1.33-3.8a2.29,2.29,0,0,0-.28-.76c-.19-.38-.23-.63-.1-.76s.13-.44,0-.57l-.38-.38c-.38-.89-1.05-2.22-2-4a29.77,29.77,0,0,1-2.18-5,14.56,14.56,0,0,1-.76-4.47l-.19-1.14-.19-.76a3.38,3.38,0,0,1-.38,1.52,9,9,0,0,0-.57,1.33,5.63,5.63,0,0,1-.76,1,1.25,1.25,0,0,0-.38,1.23v.57a3.86,3.86,0,0,1-.29,1.33c-.19.51-.35,1-.47,1.34a26.25,26.25,0,0,1-2.09,7,17.88,17.88,0,0,1-1.14,2.09,2.47,2.47,0,0,0-.58,1.24,12.16,12.16,0,0,1-.38,1.42,17.27,17.27,0,0,1-1,2.19,6.67,6.67,0,0,0-.86,3.13c0,.13-.12.32-.38.57-.63.64-.76,1-.38,1v.38a9.43,9.43,0,0,1-1.52,4.38l-.19.38c0,.76-.32,1-.95.76s-.82-.26-.57,0a.74.74,0,0,1,.19.57,3.9,3.9,0,0,1-.19,1c-.13.45,0,.67.38.67h2.85a9.8,9.8,0,0,1,2.38.47,2.28,2.28,0,0,0,2.38-.28.48.48,0,0,1,.76,0l.19.19a.88.88,0,0,0,1,.09,3,3,0,0,1,.86-.28,1.66,1.66,0,0,1,.66.28c.32.19.54.23.67.1s.44-.19.95-.19a16.4,16.4,0,0,1,2.56.19,17.86,17.86,0,0,0,2.76.19,15.39,15.39,0,0,1,2.85.19,4,4,0,0,0,2.66.19,3,3,0,0,1,1.52,0Z"/><path class="cls-1" d="M499.94,120.2c.12,0,.06.13-.19.38v.19c0-.13,0-.19-.1-.19s-.09.06-.09.19a6.16,6.16,0,0,1-1.33.57l-.19.19.19-.38a.17.17,0,0,0,.19-.19l-.19.19h-.38v.38l-.38.19.19-.19-.38.38c.12-.13.12-.06,0,.19s-.13.19-.38.19-.23-.16-.29-.1a.42.42,0,0,0-.09.29l-.38.38-.19.19-.76.76a3.46,3.46,0,0,0-1,.38l-.19.19c-.25.26-.44.38-.57.38s-.19,0-.19.1v.28l-.19.19q-.37.39-.57,0v.19a.33.33,0,0,1-.38.38v.19a.74.74,0,0,1-.57.19l-.38.38H491v-.19l.19-.19H491v-.19c-.25,0-.41-.09-.47-.28a1.42,1.42,0,0,1-.1-.48l-.38-.76a.77.77,0,0,0-.19-.57.56.56,0,0,1-.19-.38l-.76-1-.38.38a4.25,4.25,0,0,0-.76,1.62,7.29,7.29,0,0,1-.76,1.8,2.09,2.09,0,0,0-.38.76q-.19.57-1.14,0c-.25-.12-.54.16-.85.86a2.31,2.31,0,0,0-.29,1.61,4.71,4.71,0,0,1-2.66-1.9,17.14,17.14,0,0,1-1.33-1.9,20.66,20.66,0,0,0-2.66-3.8c.63,1.52.5,2.09-.38,1.71l2.85,4.75,1.14,1.52c0,.13.12.32.38.57s.19.45-.19.57-.83.07-1.33-.57l-2.28-3.23-1.43-2.09a7.5,7.5,0,0,0-2.37-2.28l2.47,3.8,4,6.27c.63,1,.69,1.71.19,2.1l-.19.19a1.17,1.17,0,0,0-.29.57c-.06.25-.22.31-.47.19a2.6,2.6,0,0,1-1.14-.95,10.81,10.81,0,0,0-.95-1.14c-.64-1-1.14-1.59-1.52-1.72l-.38-.38c-.76-.88-1.78-2.18-3-3.89s-2.35-3.26-3.24-4.66c-1.26-1.77-2.28-3.1-3-4q-4-5.32-5.13-7a105.41,105.41,0,0,1-6.46-9.69,8,8,0,0,1-.95-1.24,2.76,2.76,0,0,1-.57-1.42A2.25,2.25,0,0,1,452,98.81a7.32,7.32,0,0,0-1-1.42c-.64-.76-1.21-1.49-1.72-2.19s-.95-1.36-1.33-2l-3.42,4.94c-.63.89-1.33,1.9-2.09,3l-2.66,4-.76.95a1.94,1.94,0,0,0-.38.76,1.23,1.23,0,0,1-.57.76,6.38,6.38,0,0,0-1.33,2.28,3.56,3.56,0,0,1-.67.48c-.31.19-.54.22-.66.09v.38a3.15,3.15,0,0,1-1.14,2.09,23.32,23.32,0,0,0-1.62,2.57,14.78,14.78,0,0,1-1.42,2.19,12.09,12.09,0,0,0-1.62,2.09,12.49,12.49,0,0,1-1.62,2.09l-.19.38a6.29,6.29,0,0,1-.85,1.52,15.06,15.06,0,0,0-1.05,1.71c0,.13,0,.16-.09.1s-.16,0-.29.09a1.15,1.15,0,0,1-.19.67,2.79,2.79,0,0,1-.76.66l-.57.57a.31.31,0,0,0,.19.29c.13.06.06.22-.19.47-.51.76-.95,1-1.33.76l.19.57a.81.81,0,0,1-.47.67,4.18,4.18,0,0,0-.67.47,1.42,1.42,0,0,0,.1.48c.06.19,0,.41-.29.66l-1.33,1a.61.61,0,0,0-.57.38c-.13.13-.13.19,0,.19a.17.17,0,0,1,.19.19c.13.39.13.64,0,.77h-.66a.68.68,0,0,1-.67-.38c0-.39-.19-.45-.57-.2a.81.81,0,0,0,0,.77.9.9,0,0,0,.19.47.36.36,0,0,1,0,.48c-.13.25-.29.38-.48.38h-.47a.81.81,0,0,1-.57.19c.63-.64.69-1,.19-1.14a2.63,2.63,0,0,1-2.28-2.67.6.6,0,0,0-.19-.38q-.19-.18,0-.57a.65.65,0,0,1,.66,0,.9.9,0,0,0,.48.19c.38,0,.57-.06.57-.19s-.07-.38-.19-.38a1.11,1.11,0,0,1-.19-1.14.31.31,0,0,0,.09-.38c-.06-.12-.16-.12-.28,0l-.76,1h-.48c-.19,0-.35-.12-.47-.38a.65.65,0,0,1,.47-.19c.19,0,.35-.12.48-.38-.13-.12-.42-.12-.86,0s-.73.07-.85-.19a.67.67,0,0,1,0,.67,2.79,2.79,0,0,1-.76.66c0-.12-.13-.19-.38-.19s-.32.07-.19-.19c.12-.5.09-.85-.1-1a.79.79,0,0,0-.85-.1.47.47,0,0,0-.57-.28,1.17,1.17,0,0,0-.57.28q-1,.39-1,0c-.12-.25-.47-.44-1-.57s-.92-.31-1-.57a4,4,0,0,0-1.71-1.52,1.3,1.3,0,0,0-.95-.38c-.51,0-.76-.31-.76-1s-.32-1-.95-.57l-.38.38a.53.53,0,0,1-.38.19q-.57-.37-.57-.57a3.34,3.34,0,0,1,1-1.9c-.13-.13-.38,0-.76.38a1.44,1.44,0,0,0-.66.38c-.32.26-.54.19-.67-.19,0-.12-.13-.19-.38-.19q-1.14.57-1.14-.57a.46.46,0,0,0-.38-.48c-.26-.06-.38-.15-.38-.28a.33.33,0,0,0-.19-.29c-.13-.06-.13-.15,0-.28a2.27,2.27,0,0,1,1.33-1.14c.13-.13.22-.16.29-.1s.15,0,.28-.09c-.38-.13-.26-.51.38-1.14l.19-.19a5.43,5.43,0,0,1,1.52-3.14c.89-.95,1.52-1.68,1.9-2.18,1-1.53,2.09-3,3.23-4.38l4-5.89A41.13,41.13,0,0,1,414.78,97l4.56-6.66,5.32-7.22c.51-.88,1-1.68,1.52-2.38s.95-1.36,1.33-2l3.05-4,2.47-4-.19-.19a4.7,4.7,0,0,1-.86-2.1,5,5,0,0,1,.1-1.71q-.19-.37-.57,0c-.26.26-.64.19-1.14-.19a1.8,1.8,0,0,1-.77-1.52.5.5,0,0,0-.57-.57l-.57-.57a1.84,1.84,0,0,0-.66-1.23,4.67,4.67,0,0,1-.86-1.05c0-.12-.12-.31-.38-.57a3.56,3.56,0,0,1-.66-1.14c-.07-.25.16-.38.66-.38l-.38-.38a4.29,4.29,0,0,1-1.71-1c-.13-.13-.16-.38-.09-.76a1.59,1.59,0,0,0-.29-1.14c-.13,0-.22.13-.28.38s-.23.13-.48-.38a1.89,1.89,0,0,1-.38-.95,1.56,1.56,0,0,1,.57-1,.62.62,0,0,0-.57-.38q-1.33-.37-3.42-3.23l-.19-.57a.87.87,0,0,0-.57-1,1.56,1.56,0,0,1-.57-1,.17.17,0,0,1,.19-.19h.38q.38.39.57,0c0-.12-.13-.31-.38-.57a.74.74,0,0,1-.19-.57c.5-.25.38-.63-.38-1.14l-.38.76c0,.38-.13.51-.38.38a1.66,1.66,0,0,1-1.14-1.14,1.94,1.94,0,0,0-.95-1.52.82.82,0,0,1-.19-1.14l.19-.19a1.77,1.77,0,0,0,.19-1.33c-.13-.25-.26-.35-.38-.28a.92.92,0,0,1-.38.09l-.76-.38a1.37,1.37,0,0,1-.57-.19,1.13,1.13,0,0,1-.57-.57.33.33,0,0,1,.38-.38H414c.12.13.22,0,.28-.38a1.62,1.62,0,0,0-.09-1,.17.17,0,0,0-.19-.19.17.17,0,0,0-.19.19.73.73,0,0,1-.48.76,2.13,2.13,0,0,1-.66.19c-.13-.5-.1-.85.09-1a.79.79,0,0,0,.29-.48V37.7a.62.62,0,0,0-.57-.38l-.57.57c-.26.26-.51.19-.76-.19s-.07-.57.19-.57.28-.13.47-.38a.83.83,0,0,1,.67-.38c-.64-.76-1-.89-1.14-.38l-.19.38c-.26,0-.38-.06-.38-.19a.77.77,0,0,1-.19-.57.54.54,0,0,0,.38-.76.62.62,0,0,0-.76.19.38.38,0,0,1-.1.28c-.06.07-.16,0-.28-.09-.26-.38-.32-.63-.19-.76a1.37,1.37,0,0,1,.19-.57,2.08,2.08,0,0,1,.38-.57c.12,0,.25-.1.38-.29a1,1,0,0,0,.19-.47.44.44,0,0,0-.48-.1c-.19.07-.35,0-.47-.28a1.93,1.93,0,0,0,.47-1.14,11.44,11.44,0,0,0,.1-1.14,1.12,1.12,0,0,0-.76.76,2.92,2.92,0,0,0-.19.76c-.13.12-.19.5-.19,1.14a5.17,5.17,0,0,1-.19,1.52A2.23,2.23,0,0,1,409,33a1,1,0,0,0-.29-1l-.37.19c-.26,0-.58-.45-1-1.33a9,9,0,0,0-1.71-2.09q-.37-1,0-1.14c.26,0,.26-.19,0-.58s-.31-.44-.57-.19-.76-.06-1.14-.57q-5.32-7.59-7.41-10.45a8.19,8.19,0,0,1-.86-1.81c-.06-.31.16-.66.67-1a3.37,3.37,0,0,1,2.47-.76H399A2.1,2.1,0,0,1,400.62,11a3.59,3.59,0,0,0,1.61-.66,2.49,2.49,0,0,1,1.52-.48,8.11,8.11,0,0,0,1.71-.28c.89-.26,1.4-.64,1.52-1.14a.5.5,0,0,1,.57-.57c.13.12.26.16.38.09a.31.31,0,0,0,.2-.28,1,1,0,0,1,1-1h1.24c.25-.13.57.12.95.76l4.18,6.84a25.64,25.64,0,0,1,1.52,2.37c.38.7.76,1.37,1.14,2a1.16,1.16,0,0,1,.28,1,8.22,8.22,0,0,0-.09,1v.57c.25.13.5,0,.76-.38s.31-.12.57.38q-.2.2,0,1c.12.57.06.92-.19,1a.33.33,0,0,0-.38.38l.57.38a1.54,1.54,0,0,0,1.14.29A6.81,6.81,0,0,0,422,24.2v.19a1.23,1.23,0,0,1-.28.76,1.29,1.29,0,0,0-.29.76c.13.13.22.13.29,0a.3.3,0,0,1,.28-.19.36.36,0,0,1,.48,0,2.79,2.79,0,0,1,.66.76c.13.38.32.86.57,1.43a3.53,3.53,0,0,0,1.14,1.43c.13.12.19.44.19.95s-.12.82-.38.95a8,8,0,0,1-2.09.19,2.79,2.79,0,0,0,1.71.57A1.83,1.83,0,0,0,426,30.86a2.18,2.18,0,0,1,.29,1.33,5,5,0,0,0-.1.76c.26.13.45,0,.57-.29s.26-.47.38-.47a2.06,2.06,0,0,1,.19,1,1.07,1.07,0,0,0,.38-.76,3.62,3.62,0,0,0-.76-1.71.17.17,0,0,1-.19-.19A3.6,3.6,0,0,0,425.9,29a7.17,7.17,0,0,1-1-1.52l-2.09-3.62c-.51-.88-.57-1.52-.19-1.9a1.85,1.85,0,0,1-1.71-1c-.38-.63-.63-1.07-.76-1.33l-2.47-4-3.23-4.94a36.67,36.67,0,0,0-2.09-3.42,2.8,2.8,0,0,1-.76-1.62c0-.44.19-.67.57-.67A6.25,6.25,0,0,0,415,2.72a2.2,2.2,0,0,1,.66-.38,1.16,1.16,0,0,0,.67-.57c.12-.12.38,0,.76.38l.95,1.9,4,6.66c.51.89,1.11,1.87,1.81,2.94S425.23,16,426,17.36q.57,1.14,5.14,7.6a2.2,2.2,0,0,0,.47.86.85.85,0,0,1-.09,1.23,1.36,1.36,0,0,1,1.33,1l4.75,7.22,3,4.56q2.28,3.42,3.61,5.13l2.47,3.61.57,1V49.3l.76-1.15a12.13,12.13,0,0,0-1-1.23,3.88,3.88,0,0,1-.76-1.24l-.95-1.42a12.69,12.69,0,0,0-1.52-1.81l-.57-.57a4.63,4.63,0,0,1-.47-1.42c-.07-.45.09-.67.47-.67a.62.62,0,0,0-.57-.38h-.19c-.38,0-.83-.38-1.33-1.14l-.38-.76c-.13-.12-.48-.54-1.05-1.24a1.61,1.61,0,0,1-.28-2c-.13-.13-.26-.06-.38.19s-.32.25-.57,0c-.76-1.14-1-2-.76-2.66a4.25,4.25,0,0,1-1.43-1,6.92,6.92,0,0,1-1.42-2.18,6.48,6.48,0,0,0-.57-.76A4.37,4.37,0,0,1,433,25.15c-.13-.12-.38-.41-.76-.85a2,2,0,0,1-.57-1.24c0-.12-.13-.31-.38-.57a1.4,1.4,0,0,1-.67-.76c-.07-.25.1-.38.48-.38a4.71,4.71,0,0,0-.67-.47.65.65,0,0,1-.28-.86c0-.12,0-.19-.1-.19h-.29c-.25,0-.38-.06-.38-.19-.63-.63-1-1.07-1-1.33s.29-.22.48.1.35.47.47.47a4,4,0,0,0-.09-1.14c-.07-.12-.41-.19-1.05-.19a2.47,2.47,0,0,1-.76-.66c-.25-.32-.31-.54-.19-.67a.69.69,0,0,0-.57-.95.52.52,0,0,0-.38-.19c-.12,0-.25-.13-.38-.38s.19-.38.57-.38.38-.32.38-1a1.07,1.07,0,0,0-.38-.76c-.38,0-.57.06-.57.19s-.12.22,0,.28a.8.8,0,0,0,.38.1c.26.25.32.44.19.57s-.57.25-.95,0S425,13.12,425,13l.19-1H425c-.25,0-.63-.44-1.14-1.33a87.25,87.25,0,0,1-4.56-7.61,3.29,3.29,0,0,1-.67-1.61c-.06-.57-.09-1-.09-1.24s.19-.31.57-.19a1.67,1.67,0,0,1,1.33.76c.51.89,1,1.78,1.52,2.66l1.52,2.67c.25.5.57,1.17,1,2a10.46,10.46,0,0,0,1.33,2.19,1.45,1.45,0,0,1,.1.85,1.42,1.42,0,0,0-.1.48c1,.38,1.71,1.46,2.09,3.23,0,.63.26.95.76.95l.57.19A2.12,2.12,0,0,1,430,17a4.08,4.08,0,0,0,.76,1.14,3.45,3.45,0,0,1,.76,2.28l.38,1c.25-.25.57-.19.95.19s.31.89-.19,1.14c-.26,0-.32.19-.19.57,0,.13,0,.19.09.19s.1-.06.1-.19l.57-.19q.94,0,1.14,1.71a5.43,5.43,0,0,1,.57.95q.38.77,0,1.14c.25.26.47.32.66.19a.36.36,0,0,1,.48,0,2.48,2.48,0,0,1,1.14,1.34l.38.57q-.19.38-.57,0a1.53,1.53,0,0,0-.67-.19c-.19,0-.28.19-.28.57h.57q.38,0,.57.57l.38.19c.76.12,1.39.76,1.9,1.9l.38.76a1.37,1.37,0,0,1,.66.85.55.55,0,0,1-.28.67c-.26,0-.26.13,0,.38a.6.6,0,0,0,.57.38c.25-.38.51-.38.76,0s.19.57-.19,1c0,.13-.09.22-.28.28s-.23.23-.1.48.5.25.76-.38c.25-.25.48-.25.67,0a6,6,0,0,0,.47.57c.38.64.86,1.36,1.43,2.19a13.9,13.9,0,0,0,1.42,1.8q.57,1,3.42,5.32A23.15,23.15,0,0,1,451,43.78a12.36,12.36,0,0,0,1.81-2.85,8.2,8.2,0,0,1,1.52-1.9,3.12,3.12,0,0,0,.47-.86,1.6,1.6,0,0,1,.67-.85c0-.25.06-.38.19-.38l2.66-4.56c.38-.51,1.77-2.66,4.18-6.47l2.28-3.61.57-1.33c.51-.5.82-.76,1-.76a.5.5,0,0,0,.57-.57.48.48,0,0,1,0-.76,10.91,10.91,0,0,0,.48-1.14,1.46,1.46,0,0,1,.85-.95c.38-.25.51-.5.38-.76v-.38a31.24,31.24,0,0,0,3.61-6.27l4.38-6.85c.38-.5.63-.57.76-.19s.31.19.95-.19c.76-.76,1.45-1,2.09-.76a.82.82,0,0,0,1.14-.19c.76-.5,1-.31.76.57-.13.64.06.89.57.76.12-.12.31-.06.57.19a5.19,5.19,0,0,0,.76,1,2.38,2.38,0,0,1,.57,1.61c0,.26.13.26.38,0,.89-.12,1.2.32.95,1.34V7.1a1.69,1.69,0,0,0,.29.85,1.7,1.7,0,0,1,.28.86h.19l.76-.19a2.23,2.23,0,0,1,.95.28,1.47,1.47,0,0,0,1.14.1c.26,0,.32.25.19.76,0,.88.19,1.2.57,1,.13-.13.45.06.95.57q.19.57.57.66c.26.07.57-.09.95-.47q.39-.2.57,0c.26.25.57,0,.95-.76.77-.76,1.27-1,1.53-.57.38.12.38.63,0,1.52a1.19,1.19,0,0,0,0,.95.6.6,0,0,0,.57.38c.25.13.31.57.19,1.33-.38,1-.13,1.52.76,1.52.5,0,.57.38.19,1.14A40.39,40.39,0,0,0,495,21.35l-3.43,5.32q-2.46,3.61-7,10.84A3.45,3.45,0,0,1,483.4,39v.19a6.51,6.51,0,0,1-1.33,2.66c-.76,1-1.33,1.84-1.71,2.47a56.4,56.4,0,0,0-4,6.28q-3.24,4.56-5.52,8.55l-4.94,7.22a22.17,22.17,0,0,1-1.33,1.9l2.47,3.62,6.28,9.5q7.59,10.65,10.26,14.07,1.52,2.28,4.94,6.46c.89,1.27,1.65,2.44,2.28,3.52s1.21,2.06,1.71,2.94v.19l.19.19a2.77,2.77,0,0,1,.38.48,3.29,3.29,0,0,1,.38.85l.76.95,1,1.33.57,1,.19.38,1.33,2.09c0,.12,0,.19.09.19h.29v.38c.25,0,.25.12,0,.38.25-.13.38-.07.38.19l.38.76a1.09,1.09,0,0,1,.38.76.17.17,0,0,1,.19.19.17.17,0,0,0,.19.19v.19c.12-.13.19-.06.19.19h.19l-.19.38c.12-.13.19-.06.19.19h.19v.38h.19l-.38.38-.19.19h.19Z"/><path class="cls-2" d="M11.5,34.61l-7.22-.76H3.9A1.17,1.17,0,0,0,3,33.47H2.37a7.81,7.81,0,0,1-1-.2,1.9,1.9,0,0,1-1.24-.76q-.18-.18,0-.57a1.37,1.37,0,0,0,.19-.57v-.19c0-.63.38-.95,1.14-.95H6.75c.25,0,.76,0,1.52.1a3.52,3.52,0,0,0,1.9-.29A4.06,4.06,0,0,0,8,29.38c-1-.06-1.61-.1-2-.1a11.23,11.23,0,0,1-2.48-.19c-.76,0-1.14-.25-1.14-.76s.32-.5,1-.38A.71.71,0,0,1,4,27.86a4.25,4.25,0,0,0,.67.09h3.8c-.64-.63-.32-1.07.95-1.33a4.06,4.06,0,0,0-1.81-.38A5.23,5.23,0,0,1,6,26.05c-.13,0-.64,0-1.52.1a2.15,2.15,0,0,1-2.1-1.24,2.5,2.5,0,0,0,.86-.85,2.17,2.17,0,0,0,.47-1.24l-.19-.19c-.5-.38-.66-.73-.47-1.05s.35-.6.47-.85A12.81,12.81,0,0,1,4.09,19a14.23,14.23,0,0,0,.57-1.71,1.65,1.65,0,0,1,.09-.48.85.85,0,0,0-.09-.66c-.38-.76-.13-1.21.76-1.33a1.31,1.31,0,0,1,.66-.29,1.36,1.36,0,0,0,.67-.28,3.21,3.21,0,0,1,2.09-.38q.57.18.57,0c.13-.13.16-.22.09-.29a.38.38,0,0,0-.28-.09,5.33,5.33,0,0,0-.76-.57l1.14-.19a3,3,0,0,0,1.14-.38c-.63-.26-1-.58-1-1s.32-.69,1-.95c.13-.12.41-.34.85-.66a2.72,2.72,0,0,1,1.62-.48c.51-.12.76-.38.76-.76s-.16-.41-.48-.47a4.39,4.39,0,0,0-.66-.1h-.95c-.63,0-1-.25-1-.76a2.68,2.68,0,0,1,.19-1,2.28,2.28,0,0,0,.19-.86l.38-.19L15.87,5H17l5.89.57q7.8.77,11.79,1H47.43a24.57,24.57,0,0,0,3.42-.19,2.46,2.46,0,0,1,2.85,1,1.26,1.26,0,0,0,.95.38q3.24-.18,5.7-.09c1.65.06,3,.09,4.18.09a18.54,18.54,0,0,0,3.24.19h1.52L72.71,8q.77,0,.57.57V9a.61.61,0,0,0,.19.47c.38,0,.51-.09.38-.28a.9.9,0,0,1-.19-.48,1.65,1.65,0,0,1,.09-.47c.07-.19.29-.29.67-.29a.44.44,0,0,1,.47.29,1.41,1.41,0,0,1,.1.47l.19.19.19-.19c0-.63.32-.82.95-.57.13.13.22.16.28.1a.42.42,0,0,1,.29-.1,3.05,3.05,0,0,1,1.23-.09.87.87,0,0,1,.67.66l.19.19c.38-.12.64-.09.76.1a3.35,3.35,0,0,0,.38.47c.38-.38.26-.69-.38-.95a.17.17,0,0,0-.19-.19.17.17,0,0,1-.19-.19L80.12,8a2.73,2.73,0,0,1,1.14.19c.13,0,.19.1.19.29s.13.35.38.47q0-.57.48-.57H83c.89-.5,1.46-.25,1.71.76l.19.19a.59.59,0,0,0,.38-.57c-.38-.5-.12-.76.76-.76.26,0,.38.1.38.29v.47a.6.6,0,0,1,.38-.19A.17.17,0,0,0,87,8.37.77.77,0,0,1,87.72,8a7,7,0,0,1,.19-1.9c0-.76.19-1,.58-.76.88.38,1.39.07,1.52-1a1.4,1.4,0,0,1,.47-.76,1,1,0,0,1,.86,0h.76c.38,0,.57-.25.57-.76.12-.76.38-1.14.76-1.14a.49.49,0,0,1,.66.19,1.55,1.55,0,0,1,.29,1c.25.64.51,1,.76,1a.55.55,0,0,1,.19.38c.38.76,1.08.95,2.09.57a1,1,0,0,1,1.14,0,.82.82,0,0,0,1.14-.19q.39-.75.57-.57a4.66,4.66,0,0,0,1.43.29,1.62,1.62,0,0,1,1.42.85h.19a4.67,4.67,0,0,1,.86-.66,4.26,4.26,0,0,0,.85-.67q1-1.32,1.71-.57.19.19.57,0a3.41,3.41,0,0,1,1.71-1c.64-.12,1-.19,1.14-.19a.82.82,0,0,1,.58.19c.38.38.69.26,1-.38s.63-.76,1.14,0q.18.57,1.14.57a3,3,0,0,1,1.52,1.71c.25.64.51.83.76.57s.38-.06.38.57v7.42c-.25,2.53-.38,4.31-.38,5.32V20c-.38.13-.38.38,0,.76a2.22,2.22,0,0,1,.09,1.14,6.33,6.33,0,0,0-.09.95.6.6,0,0,1-.38.57q-.39.2,0,.57c.38.13.44.51.19,1.14v1.52q-.19,3.61-.19,10.84a9.31,9.31,0,0,1,.09,2.37,11.79,11.79,0,0,0,.1,2.57l-.19.38a1.47,1.47,0,0,1,.09.95,6.33,6.33,0,0,0-.09,1,10,10,0,0,1,.19,2.28l.19,4.56a37.2,37.2,0,0,1,.19,4.38c0,.88,0,2,.09,3.23a29.92,29.92,0,0,1-.09,4.18,3.29,3.29,0,0,0,.09.76.55.55,0,0,1-.09.57l.19,1.71v.38a2.37,2.37,0,0,0-.1,1.24,1.43,1.43,0,0,1-.28,1.23c.13,0,.19.13.19.38a1.09,1.09,0,0,1,.19.76,11.85,11.85,0,0,0,0,3,25.8,25.8,0,0,1,.19,2.86,61.79,61.79,0,0,0,.19,8,37,37,0,0,0,.19,4.37l.19,4.75.57,8.37a40.41,40.41,0,0,0,.19,4.27c.13,1.21.25,2.26.38,3.14s0,1.68.09,2.76.23,2.37.48,3.89a37.88,37.88,0,0,1,.47,3.9c.07,1.08.1,2,.1,2.76l.38,4.94a7.51,7.51,0,0,0,.28,2,7.67,7.67,0,0,1,.29,2,5.8,5.8,0,0,1-.38,1.71v.19c.13.76-.06,1.21-.57,1.33.38,0,.57.13.57.38.38.13.57.64.57,1.52a1.24,1.24,0,0,1-.38.29.85.85,0,0,1-.38.09q0,.19-.57,0c-.38-.12-.63-.12-.76,0-.51.76-1,.83-1.52.19,0-.12-.13-.19-.38-.19-.38.51-.7.26-1-.76a.61.61,0,0,1-.19-.47c0-.19-.07-.29-.19-.29q0,2.28-.57,2.28l-.57-.19c-.26,0-.38-.19-.38-.57-.51-.63-1-.69-1.52-.19a2.18,2.18,0,0,1-1.52.38,2.82,2.82,0,0,0-1.15-.19,20,20,0,0,0-2.28.38,3,3,0,0,1-1.52,0,3.21,3.21,0,0,0-1.52,0c-.25.26-.5.07-.76-.57a.93.93,0,0,0-1.14-.57.78.78,0,0,0-1-.38,1.16,1.16,0,0,0-.76.76c-.12.26-.25.32-.38.19s-.12-.25-.38,0a1.86,1.86,0,0,1-.38-1,1.13,1.13,0,0,1,.38-.76.77.77,0,0,1-.86-.19,1.44,1.44,0,0,0-.66-.38.62.62,0,0,0,.28.57c.19.13.29.26.29.38a.37.37,0,0,1-.57.19,2.08,2.08,0,0,1-.57-.38.86.86,0,0,0-.19-.95c-.13-.25-.25-.25-.38,0,0,.51-.32.76-1,.76-.13,0-.19.13-.19.38a.37.37,0,0,0,.19.57,1.83,1.83,0,0,0,.85.19,1,1,0,0,1,.67.19,1.19,1.19,0,0,1-.76.57A5.54,5.54,0,0,1,94.38,138a2.58,2.58,0,0,1-1.14-.19c-.38-.12-.57.19-.57,1l-.19-.38A4.24,4.24,0,0,0,92,138a.62.62,0,0,1-.28-.57c0-.12.09-.22.28-.28a1.17,1.17,0,0,0,.48-.29c.38,0,.5-.12.38-.38s-.07-.41-.19-.47a.32.32,0,0,0-.38.09.75.75,0,0,1-1,.1,2.27,2.27,0,0,0-1-.29h-1.9a8.78,8.78,0,0,1-2.67,0c-1.26-.12-2.21-.19-2.85-.19q-8.55-.37-12.54-.19a43.6,43.6,0,0,0-4.76-.09c-1.39.06-2.59.09-3.61.09a32.07,32.07,0,0,1-4.18.19,10.5,10.5,0,0,0-3.42.38,3,3,0,0,1-3-.76,1.28,1.28,0,0,0-1.14-.57,39.44,39.44,0,0,1-4.56.19H40.58l-5.13-.19h-3c-.63,0-.95-.19-.95-.57.25-.5.25-.82,0-1s-.32.26-.19.76a1.42,1.42,0,0,1-.1.48c-.06.19-.15.28-.28.28-.63,0-.95-.25-.95-.76l-.19-.19c-.38-.25-.57-.19-.57.19s.09.57-.1.57a2.88,2.88,0,0,1-.85-.19l-.38.19A1.67,1.67,0,0,1,26,134l-.19-.19c-.26.13-.41.1-.48-.09a.87.87,0,0,0-.47-.48c-.51.38-.39.7.38,1v.38l-.38.19a3.26,3.26,0,0,1-1.34-.19.33.33,0,0,1-.38-.38c0-.25-.06-.38-.19-.38q0,.39-.57.48a1.5,1.5,0,0,0-.76.28.9.9,0,0,1-1,.1,1.12,1.12,0,0,1-.48-1.05l-.19-.19a1.14,1.14,0,0,0-.19.76c.13.38-.19.57-1,.57-.25,0-.38-.25-.38-.76-.38.13-.57.26-.57.38-.12.51-.63.64-1.52.38a1.29,1.29,0,0,0-.95,0,1.19,1.19,0,0,1-1,0l-.19-.38c-.51-.5-.95-.5-1.33,0a1.62,1.62,0,0,1-2.47,0v.48q0,.28-.57.09a23.64,23.64,0,0,0-3.61.38c-.38,0-1.84.13-4.38.38a1.14,1.14,0,0,1-.66-.19,2.77,2.77,0,0,1-.48-.38.39.39,0,0,0-.09-.28c-.06-.06,0-.16.09-.29a3.46,3.46,0,0,1,2.48-1.14q3.8-.37,6.08-.38c.76,0,1.14.26,1.14.76l.57-.76q.2-.37.57,0l.28.29a.36.36,0,0,1,.1.28.33.33,0,0,1-.38.38c-.25-.25-.38-.25-.38,0s.06.38.19.38c0,.26.13.26.38,0a1.64,1.64,0,0,0,.57-1.14q-.37-.37,0-.57c.13,0,.32.13.57.38a.55.55,0,0,0,.38.19,1.37,1.37,0,0,0,.57-.19.81.81,0,0,1,.57-.19.6.6,0,0,1,.57.38c.13.26.29.38.48.38a1.75,1.75,0,0,0,.85-.38c0-.12-.16-.16-.47-.09s-.41,0-.29-.29a.57.57,0,0,1,.57-.09,2.86,2.86,0,0,0,.57.09l.19.38H17c.26-.38.48-.47.67-.28a.77.77,0,0,0,.47.28c-.12-.38-.09-.57.1-.57a3.25,3.25,0,0,1,.85.19h.57a1.31,1.31,0,0,1,.86-.09,4.65,4.65,0,0,0,.85.09,3.57,3.57,0,0,1,1.9-.19.32.32,0,0,0,.38.1.8.8,0,0,1,.38-.1c1.65-.38,2.67-.12,3.05.76a1.87,1.87,0,0,1,1.71-.95c.12,0,.16.13.09.38a.56.56,0,0,0,.1.57c.12-.63.69-.95,1.71-.95l1.14.19h.57a.85.85,0,0,1,.76,0,.62.62,0,0,1,.38.57.33.33,0,0,0,.38.38c-.13-.5,0-.82.38-.95a3.57,3.57,0,0,1,.76-.19h.38c1.27.26,2,.38,2.09.38l1.14-.19a1.81,1.81,0,0,1,1.14,0,5.44,5.44,0,0,0,1.33.19h.57a1.29,1.29,0,0,1,1,0,1.83,1.83,0,0,1,.95.76c.13-.5.32-.79.57-.85a2.41,2.41,0,0,1,.57-.1q2.67.19,7.42.19,1.14,0,1.14-.57a.75.75,0,0,0-.57-.76h-1.9c-4.57,0-8.05-.06-10.46-.19-.88,0-2.09-.06-3.61-.19a17.84,17.84,0,0,0-3.61,0c-2.28-.12-5.64-.19-10.08-.19a1.21,1.21,0,0,1-1.33-.57c0,.51-.38.76-1.14.76a54.64,54.64,0,0,0-6.27,0,29.94,29.94,0,0,0-3.8.19,46.84,46.84,0,0,0-7.22.38,6.61,6.61,0,0,1-1.91-.19c-.38,0-.5-.12-.38-.38a2.91,2.91,0,0,0-.19-1.71A10.33,10.33,0,0,0,1.23,127V126a.88.88,0,0,1,.19-1,1.58,1.58,0,0,1,1.14-.38h.58l2.66-.19H13a11.45,11.45,0,0,0,1.24-.1,1.14,1.14,0,0,1,1.23.86c0-.51.45-.76,1.33-.76l3-.38a2.28,2.28,0,0,1,.86.19,2.27,2.27,0,0,0,.85.19.74.74,0,0,0,.57-.19c1,0,1.52-.44,1.52-1.33,0,.25-.19.38-.57.38a1.15,1.15,0,0,1,.29-.57c.19-.26.16-.45-.1-.57a2.23,2.23,0,0,0-.38.57,1.36,1.36,0,0,1-.95.57c.51-1.14.19-2.28-.95-3.42a4.71,4.71,0,0,1,.57,2.09c.13.25,0,.57-.28,1s-.54.44-.67.19a3,3,0,0,0-1.33-.1,8.73,8.73,0,0,1-1.14.1,1.91,1.91,0,0,1-.66-.1c-.19-.06-.22-.22-.1-.47s-.06-.57-.19-.57a4,4,0,0,1-.76,1.52,2.62,2.62,0,0,0-.57-1.9H15.3c-.12,0-.19.12-.19.38s0,.5-.47.76-.67.44-.67.57c-.38,0-.57-.13-.57-.38.38-.26.38-.51,0-.76l-.19.19a2.7,2.7,0,0,0-.76.57,1.11,1.11,0,0,1-.76.38,22.16,22.16,0,0,1-3.42.19c-1.4.13-3.23.19-5.52.19-.5,0-.76-.13-.76-.38a4.12,4.12,0,0,0-.47-.76,1.26,1.26,0,0,1,.09-1.71v-.76c-.25-.13-.38-.29-.38-.48s.13-.35.38-.47a2,2,0,0,0,.19-1.91,3.63,3.63,0,0,0-.47-1.52,3.64,3.64,0,0,1-.48-1.52v-.19a5.78,5.78,0,0,0-.19-1.61A5.49,5.49,0,0,1,.47,111a2.8,2.8,0,0,1,.19-1.14v-.19a7.22,7.22,0,0,1-.38-1,4.51,4.51,0,0,1-.19-1.05,3,3,0,0,1,.57-1.52,2.63,2.63,0,0,1,1.71-.38c1.14.13,2.6.25,4.38.38a26.36,26.36,0,0,1,4.18.57q.38-.2.57.09a.9.9,0,0,1,.19.48c0,.25.06.38.19.38a.34.34,0,0,0,.38-.38c0-.38.32-.57,1-.57a4.25,4.25,0,0,1,.67.09,2.73,2.73,0,0,0,1.23-.09c.51-.13.79-.13.86,0a2.09,2.09,0,0,1,.09.76c.26.13.45,0,.57-.29a1.25,1.25,0,0,1,.57-.66,4.7,4.7,0,0,1-.47,1c-.19.32-.35.61-.48.86a6.16,6.16,0,0,0-.57,1.33v.38l1.14-1.71c.26-.12.38-.12.38,0a.56.56,0,0,0,.19.38l.19-.95a1,1,0,0,1,.19-1c0-.25.19-.38.57-.38s.51.13.38.38c-.38.38-.25.7.38,1a.31.31,0,0,0,.1-.38.77.77,0,0,1-.1-.38c.13-.25.26-.32.38-.19a.17.17,0,0,1,.19.19v.57q-.18.57.57.57c-.12-.12-.12-.32,0-.57a.79.79,0,0,0,0-.76c-.25-.25-.19-.38.19-.38a.33.33,0,0,1,.38.38.88.88,0,0,1-.09.38.7.7,0,0,0,.09.57l.38.38c.13,0,.19-.12.19-.38a1,1,0,0,1,.76-1.14,1.78,1.78,0,0,0,.19.76.61.61,0,0,1-.19.76h.19c.13,0,.26-.12.38-.38a1.37,1.37,0,0,0,.19-.57c-.38-.38-.44-.63-.19-.76s.29-.1.48.09a.8.8,0,0,0,.47.29l.57.57a1.54,1.54,0,0,1,.29.38.31.31,0,0,0,.29.19c.12,0,.25-.1.38-.29a.35.35,0,0,0,0-.47.77.77,0,0,1,.19-.57c0-.38.19-.44.57-.19a1.71,1.71,0,0,0,1.14,0,.69.69,0,0,1,.95,0c.38.13.38.38,0,.76a1.14,1.14,0,0,1-.19.76c.5.26.76.19.76-.19s.19-.38.57-.38c.38.26.69.26.95,0a.33.33,0,0,0-.19-.29.29.29,0,0,1-.19-.28.77.77,0,0,1-.38-.1c-.13-.06-.13-.15,0-.28.5-.25.76-.25.76,0,.38.38.63.38.76,0H32.5a1.9,1.9,0,0,1,1.62.76l.28.28a.38.38,0,0,0,.29.1,2.34,2.34,0,0,1,.47-1,1.5,1.5,0,0,1,1.05-.28c.26.13.35.25.29.38a.77.77,0,0,0-.1.38c.13.13.29,0,.48-.29s.41-.41.66-.28a6,6,0,0,0,.57.47,1.23,1.23,0,0,0,.57.29l.19.19c-.38-.89-.12-1.14.76-.76h.76a5.71,5.71,0,0,1,1,.09,1.22,1.22,0,0,0,.85-.09h.29c.06,0,.09.06.09.19s.32.25.57,0a.79.79,0,0,0,.48-.29.52.52,0,0,1,.66-.09.88.88,0,0,1,.57,1,.8.8,0,0,0,.19.57,3.32,3.32,0,0,1,2.67-1.52,3.52,3.52,0,0,1,2.85,1.14,6.41,6.41,0,0,1-.38-1c0-.06.31-.09.95-.09H52a14,14,0,0,1,1.42.09,2.83,2.83,0,0,0,1.62-.28l.19.19c.25.38.45.38.57,0a.77.77,0,0,0,.38-.1.31.31,0,0,1,.38.1,13.53,13.53,0,0,0,2.76.09c.69-.06,1.23-.09,1.61-.09a6.35,6.35,0,0,0,2.09-.19,2,2,0,0,1,1.71,0,16.73,16.73,0,0,0,2.76.19,13.48,13.48,0,0,1,2.57.19l1.71-.19a1.31,1.31,0,0,1,.95.38c.12-.25.47-.35,1-.29a11.27,11.27,0,0,0,1.24.1q4.56-.37,7.41-.38,1.14,0,2.76.09a26.43,26.43,0,0,0,3.89-.09,1.78,1.78,0,0,1,.19-.76.79.79,0,0,0,0-.76,2.73,2.73,0,0,1-.19-1.14q-.37-9.89-.76-14.45a.93.93,0,0,1,.2-.47.36.36,0,0,0,0-.48,2.15,2.15,0,0,1-.39-1.52v-.57a1.07,1.07,0,0,1-.76.19,27.16,27.16,0,0,0-3.8-.19,4.87,4.87,0,0,0-1.61-.1,8,8,0,0,1-1.24.1c-2.78-.25-4.69-.38-5.7-.38a3.5,3.5,0,0,1-1.14-.19,3,3,0,0,0-.95-.19,1.64,1.64,0,0,0-1.14.57l-2.47-.19L67,85.36a7.53,7.53,0,0,1-2.09-.19A15.39,15.39,0,0,0,62.06,85H60.92a2.19,2.19,0,0,0-.66.09.83.83,0,0,1-.67-.09,5.65,5.65,0,0,0-1.71-.19H56.17L54.65,85a3,3,0,0,0-1.24-.1,3.9,3.9,0,0,1-.85.1l-3.42.57a.52.52,0,0,1-.38-.19.23.23,0,0,0-.38,0,1.16,1.16,0,0,1-1.05.28,8.2,8.2,0,0,0-1-.09,3.22,3.22,0,0,1-2.09-.38,3.41,3.41,0,0,1-.95-1.71c-.5-.51-.44-.95.19-1.33.13,0,.19-.25.19-.76,0-.13-.12-.19-.38-.19q-.75-.39-1.14,0c-.12.13-.22.09-.28-.1a.89.89,0,0,1,.09-.66,2.31,2.31,0,0,0,0-1.33,6,6,0,0,1-.19-1.33v-.57a.31.31,0,0,0-.19-.29c-.12-.06-.12-.16,0-.28a1.32,1.32,0,0,0,.29-1.15,11.62,11.62,0,0,1-.1-1.33L41.53,74c0,.13,0,.19-.09.19s-.1-.06-.1-.19l.19-.38a7.65,7.65,0,0,0,.38-.85c.13-.32.26-.67.38-1,.26-.63.57-.82,1-.57-.12-.5-.25-.79-.38-.85s-.31,0-.57.09a2.54,2.54,0,0,0-.57,1.14c0,.26-.12.26-.38,0v-.57a19.83,19.83,0,0,0,.38-4.56v-.19a3.16,3.16,0,0,1-.09-1.43,1.76,1.76,0,0,0-.29-1.42v-.38a22.33,22.33,0,0,1,.95-4.75,4,4,0,0,1,1.14-1.9l2.85-1a3.37,3.37,0,0,1,.77.09,1.08,1.08,0,0,0,.76-.09.17.17,0,0,1,.19.19.25.25,0,0,0,.38,0c.38-.89.95-1,1.71-.19l.19.19c.25-.77.57-.77.95,0h.19c.13-.51.35-.73.66-.67a.9.9,0,0,1,.67.48c.25.25.44.19.57-.19V55a.17.17,0,0,1,.19.19c0,.88.13,1,.38.19v-.19c.25.5.38.44.38-.19h.38q.2.57.57,0v.38a.8.8,0,0,1-.1.38.32.32,0,0,0,.1.38c.13.12.19,0,.19-.38l.57-.57,2.47-.39a.46.46,0,0,1,.48-.09c.19.07.28.16.28.29l.29.28c.06.07.16,0,.28-.28l.19-.39a1.25,1.25,0,0,0,.86.1,4.64,4.64,0,0,1,.85-.1,2.73,2.73,0,0,1,.57.77c0,.76.07,1.07.19,1s.16-.13.1-.38a1.12,1.12,0,0,1,.09-.76h.19c.38-.51.76-.7,1.14-.58a3,3,0,0,0,.76.19c.26,0,.38-.06.38-.19h.19a1.64,1.64,0,0,0,.19.58c.13.25.26.06.38-.58.13.13.23.13.29,0a.31.31,0,0,1,.28-.19h.19a8.65,8.65,0,0,0,2.29.19,3,3,0,0,0,.76-.19c.38-.12.63.07.76.58h.19a.62.62,0,0,1,.47-.2.65.65,0,0,0,.48-.19l1,.19a2.56,2.56,0,0,1,1.14.2h.19c.76-.51,1.33-.39,1.71.38,0-.38.13-.51.38-.38l.19-.2c.25-.25.38-.12.38.39s.13.44.38.19a.33.33,0,0,1,.38-.38c.51.25.83.31,1,.19h.38c.13,0,.19-.13.19-.39H79q.19.59,1.14,0l.19.2a1.65,1.65,0,0,1,.48.09.42.42,0,0,0,.47-.09l.19-.2A1.15,1.15,0,0,1,82,55c.26.19.45.1.57-.29l.19.2a.38.38,0,0,0,.57.19.37.37,0,0,1,.57.19l.19-.19a.6.6,0,0,1,.19-.39c.13-.12.19-.12.19,0a1.12,1.12,0,0,1,.19.77c-.12.38-.12.63,0,.76a3.43,3.43,0,0,1,.19-.76.75.75,0,0,1,.76-.57c.51-.26.76.12.76,1.14a2.58,2.58,0,0,1,.67-1c.19-.13.41-.07.66.19V42.78a26.55,26.55,0,0,1-.09-3.71c.06-1.07.09-2,.09-2.75h-.19l.19-.19v-.19a6.53,6.53,0,0,0-.19-1.9l-.19,1c.13.12.13.28,0,.47a1,1,0,0,0-.19.48.33.33,0,0,1-.38.38c-.12,0-.19-.13-.19-.38a1.07,1.07,0,0,0-.19-.76.56.56,0,0,0-.19.38.55.55,0,0,1-.19.38l-.19.19c-.12,0-.19-.13-.19-.38v-.38c.38-.51.07-.76-.95-.76a.79.79,0,0,1,0,.76.85.85,0,0,0,0,.76c0,.25-.06.38-.19.38-.38,0-.57-.13-.57-.38v-1a.33.33,0,0,0-.38-.38l-.19.38a1.47,1.47,0,0,1-.19.57,1.21,1.21,0,0,1-.57.57v-.67a2,2,0,0,1,.19-.85c.13,0,.16,0,.1-.1a.42.42,0,0,0-.29-.09c-.12,0-.28.12-.47.38s-.22.44-.1.57c.38.38.38.63,0,.76-.12.12-.31,0-.57-.38l-.38-.38a.69.69,0,0,1-.19-.48c0-.19-.06-.22-.19-.09s-.44.25-1,.76v.38c0,.12-.09.25-.28.38a.67.67,0,0,1-.67,0,2.21,2.21,0,0,0-1.33,0c-.51.25-.82.19-.95-.19a.32.32,0,0,1-.1-.38.8.8,0,0,0,.1-.38l.38-.76c-.51-.26-.76-.13-.76.38a.36.36,0,0,1-.1.28c-.06.07-.15,0-.28-.09a.38.38,0,0,1-.29-.1c-.06-.06-.15,0-.28.1s-.13.22,0,.28a.31.31,0,0,1,.19.29c.25.25.32.44.19.57a.58.58,0,0,1-.38.19.17.17,0,0,1-.19-.19q-.37-.39-1.14,0H72.14a2.34,2.34,0,0,1-1.9-.95.33.33,0,0,0-.38-.38c-.13.88-.38,1.33-.76,1.33h-.19c-.38,0-.54-.1-.48-.29a.42.42,0,0,0-.09-.47c-.13,0-.29.16-.48.47s-.41.41-.67.29a2.66,2.66,0,0,1-.66-.48l-.48-.47-.19-.19c.13.5.13.82,0,1s-.44.12-1,0h-.38a1.29,1.29,0,0,1-1,0,3,3,0,0,0-.95-.19.77.77,0,0,0-.57.19l-.19-.19c-.12-.38-.31-.45-.57-.19a.83.83,0,0,1-1.14.19.78.78,0,0,1-.38-1l-.19-.38a3.62,3.62,0,0,1-3,1.52A2.4,2.4,0,0,1,54.08,35c.13.63.19,1,.19,1s-.32.16-1,.29h-.38c-.51,0-1.11,0-1.81-.1a5.42,5.42,0,0,0-1.8.1l-.19-.19c-.13-.38-.38-.38-.76,0l-.38.19a11.64,11.64,0,0,0-2.28-.19,9.5,9.5,0,0,1-2.1-.19h-1a2.38,2.38,0,0,0-1,.19l-1.9.19a11.38,11.38,0,0,0-2.94-.48q-1.81-.09-2.76-.09H32.79a1.27,1.27,0,0,1-1.14-.57,1.33,1.33,0,0,1-1.33.38,5.36,5.36,0,0,0-.95-.19H21.19Z"/></svg>